<svg width="22" height="22" viewBox="0 0 22 22" fill="none" xmlns="http://www.w3.org/2000/svg">
<path d="M21.3148 19.8109C21.4135 19.9096 21.4918 20.0268 21.5453 20.1558C21.5987 20.2848 21.6262 20.423 21.6262 20.5626C21.6262 20.7022 21.5987 20.8404 21.5453 20.9694C21.4918 21.0984 21.4135 21.2156 21.3148 21.3143C21.2161 21.413 21.0989 21.4913 20.9699 21.5448C20.8409 21.5982 20.7027 21.6257 20.5631 21.6257C20.4235 21.6257 20.2852 21.5982 20.1563 21.5448C20.0273 21.4913 19.9101 21.413 19.8114 21.3143L11.0006 12.5022L2.18981 21.3143C1.99044 21.5137 1.72004 21.6257 1.43809 21.6257C1.15614 21.6257 0.88574 21.5137 0.686372 21.3143C0.487004 21.115 0.375 20.8445 0.375 20.5626C0.375 20.2806 0.487004 20.0102 0.686372 19.8109L9.49848 11.0001L0.686372 2.18932C0.487004 1.98995 0.375 1.71955 0.375 1.4376C0.375 1.15565 0.487004 0.885252 0.686372 0.685884C0.88574 0.486515 1.15614 0.374512 1.43809 0.374512C1.72004 0.374512 1.99044 0.486515 2.18981 0.685884L11.0006 9.49799L19.8114 0.685884C20.0107 0.486516 20.2811 0.374512 20.5631 0.374512C20.845 0.374512 21.1154 0.486515 21.3148 0.685884C21.5142 0.885252 21.6262 1.15565 21.6262 1.4376C21.6262 1.71955 21.5142 1.98995 21.3148 2.18932L12.5027 11.0001L21.3148 19.8109Z" fill="white"/>
</svg>
