<svg width="25" height="26" viewBox="0 0 25 26" fill="none" xmlns="http://www.w3.org/2000/svg">
<g clip-path="url(#clip0_203_652)">
<path d="M0.892578 22.8211V3.17829C0.892578 2.70469 1.08072 2.25049 1.4156 1.9156C1.75049 1.58072 2.20469 1.39258 2.67829 1.39258H22.3211C22.7948 1.39258 23.249 1.58072 23.5838 1.9156C23.9187 2.25049 24.1069 2.70469 24.1069 3.17829V22.8211C24.1069 23.2948 23.9187 23.749 23.5838 24.0838C23.249 24.4187 22.7948 24.6069 22.3211 24.6069H16.964V16.1426H18.2319C18.5208 16.1426 18.7978 16.0278 19.0021 15.8235C19.2064 15.6193 19.3211 15.3422 19.3211 15.0533V13.6783C19.3211 13.3894 19.2064 13.1123 19.0021 12.9081C18.7978 12.7038 18.5208 12.589 18.2319 12.589H17.0354V10.9104C17.0354 9.41044 17.714 9.41043 18.3926 9.41043H19.2676C19.4113 9.41635 19.5546 9.39064 19.6872 9.33509C19.8199 9.27955 19.9388 9.19554 20.0354 9.08901C20.1392 8.99021 20.2214 8.87096 20.2767 8.73879C20.332 8.60662 20.3593 8.46441 20.3569 8.32115V6.99972C20.3616 6.85431 20.3377 6.70939 20.2864 6.57323C20.2351 6.43708 20.1575 6.31237 20.058 6.20623C19.9585 6.10009 19.8391 6.0146 19.7065 5.95466C19.5739 5.89471 19.4309 5.86148 19.2854 5.85686H17.2319C16.6327 5.83434 16.0357 5.94215 15.4822 6.17286C14.9288 6.40357 14.432 6.75167 14.0262 7.19312C13.6204 7.63457 13.3153 8.15885 13.1319 8.72974C12.9485 9.30063 12.8912 9.90453 12.964 10.4997V12.589H11.8211C11.6766 12.5866 11.533 12.6131 11.3988 12.6667C11.2646 12.7204 11.1424 12.8003 11.0393 12.9017C10.9363 13.0031 10.8545 13.1239 10.7986 13.2573C10.7427 13.3906 10.714 13.5337 10.714 13.6783V15.0533C10.714 15.1979 10.7427 15.341 10.7986 15.4743C10.8545 15.6076 10.9363 15.7285 11.0393 15.8299C11.1424 15.9313 11.2646 16.0112 11.3988 16.0648C11.533 16.1185 11.6766 16.1449 11.8211 16.1426H12.964V24.6069H2.67829C2.20469 24.6069 1.75049 24.4187 1.4156 24.0838C1.08072 23.749 0.892578 23.2948 0.892578 22.8211Z" stroke="white" stroke-width="1.2" stroke-linecap="round" stroke-linejoin="round"/>
</g>
<defs>
<clipPath id="clip0_203_652">
<rect width="25" height="25" fill="white" transform="translate(0 0.5)"/>
</clipPath>
</defs>
</svg>
