<svg width="24" height="24" viewBox="0 0 24 24" fill="none" xmlns="http://www.w3.org/2000/svg">
<path d="M0.916992 12.0003C0.916992 6.77599 0.916992 4.16266 2.53983 2.53983C4.16266 0.916992 6.77483 0.916992 12.0003 0.916992C17.2247 0.916992 19.838 0.916992 21.4608 2.53983C23.0837 4.16266 23.0837 6.77483 23.0837 12.0003C23.0837 17.2247 23.0837 19.838 21.4608 21.4608C19.838 23.0837 17.2258 23.0837 12.0003 23.0837C6.77599 23.0837 4.16266 23.0837 2.53983 21.4608C0.916992 19.838 0.916992 17.2258 0.916992 12.0003Z" stroke="white" stroke-width="1.5" stroke-linecap="round" stroke-linejoin="round"/>
<path d="M18.426 5.58301H18.4143M17.25 11.9997C17.25 13.3921 16.6969 14.7274 15.7123 15.712C14.7277 16.6966 13.3924 17.2497 12 17.2497C10.6076 17.2497 9.27226 16.6966 8.28769 15.712C7.30312 14.7274 6.75 13.3921 6.75 11.9997C6.75 10.6073 7.30312 9.27193 8.28769 8.28736C9.27226 7.3028 10.6076 6.74967 12 6.74967C13.3924 6.74967 14.7277 7.3028 15.7123 8.28736C16.6969 9.27193 17.25 10.6073 17.25 11.9997Z" stroke="white" stroke-width="1.5" stroke-linecap="round" stroke-linejoin="round"/>
</svg>
