<svg width="36" height="37" viewBox="0 0 36 37" fill="none" xmlns="http://www.w3.org/2000/svg">
<rect y="0.608398" width="36" height="36" rx="6" fill="#F4D902"/>
<path d="M26.3077 13.6084H9.69231C9.31385 13.6084 9 13.1551 9 12.6084C9 12.0617 9.31385 11.6084 9.69231 11.6084H26.3077C26.6862 11.6084 27 12.0617 27 12.6084C27 13.1551 26.6862 13.6084 26.3077 13.6084Z" fill="#252323"/>
<path d="M26.3077 19.6084H9.69231C9.31385 19.6084 9 19.1551 9 18.6084C9 18.0617 9.31385 17.6084 9.69231 17.6084H26.3077C26.6862 17.6084 27 18.0617 27 18.6084C27 19.1551 26.6862 19.6084 26.3077 19.6084Z" fill="#252323"/>
<path d="M26.3077 25.6084H9.69231C9.31385 25.6084 9 25.1551 9 24.6084C9 24.0617 9.31385 23.6084 9.69231 23.6084H26.3077C26.6862 23.6084 27 24.0617 27 24.6084C27 25.1551 26.6862 25.6084 26.3077 25.6084Z" fill="#252323"/>
</svg>
