<svg width="28" height="20" viewBox="0 0 28 20" fill="none" xmlns="http://www.w3.org/2000/svg">
<path d="M26.297 3.49033C26.1513 2.94465 25.8651 2.4467 25.4669 2.04611C25.0688 1.64551 24.5726 1.35625 24.0278 1.20716C22.027 0.666992 14.0003 0.666992 14.0003 0.666992C14.0003 0.666992 5.97366 0.666992 3.97283 1.20716C3.42806 1.35625 2.93188 1.64551 2.53374 2.04611C2.1356 2.4467 1.8494 2.94465 1.70366 3.49033C1.16699 5.50633 1.16699 9.70866 1.16699 9.70866C1.16699 9.70866 1.16699 13.911 1.70366 15.927C1.84922 16.4729 2.13534 16.9711 2.53349 17.3719C2.93165 17.7727 3.42792 18.0621 3.97283 18.2113C5.97483 18.7503 14.0003 18.7503 14.0003 18.7503C14.0003 18.7503 22.027 18.7503 24.0278 18.2113C24.5727 18.0621 25.069 17.7727 25.4672 17.3719C25.8653 16.9711 26.1514 16.4729 26.297 15.927C26.8337 13.9133 26.8337 9.70866 26.8337 9.70866C26.8337 9.70866 26.8337 5.50633 26.297 3.49033ZM11.3753 13.5248V5.89366L18.0837 9.70983L11.3753 13.5248Z" stroke="white" stroke-width="1.2" stroke-miterlimit="10" stroke-linejoin="round"/>
</svg>
